<svg width="200" height="150" viewBox="0 0 200 150" xmlns="http://www.w3.org/2000/svg">
    <!-- Front Wheel with Red Circle -->
    <circle cx="150" cy="100" r="30" stroke="black" stroke-width="3" fill="none"/>
    <!--  Rear Wheel with Red Circle-->
    <circle cx="50" cy="100" r="30" stroke="black" stroke-width="3" fill="none"/>
    <circle cx="50" cy="100" r="15" fill="red"/>
    <!-- Bicycle Frame -->
    <line x1="130" y1="60" x2="90" y2="60" stroke="black" stroke-width="3"/>
    <line x1="90" y1="60" x2="50" y2="100" stroke="black" stroke-width="3"/>
    <line x1="120" y1="40" x2="150" y2="100" stroke="black" stroke-width="3"/>
    <line x1="130" y1="60" x2="110" y2="100" stroke="black" stroke-width="3"/>
    <line x1="110" y1="100" x2="50" y2="100" stroke="black" stroke-width="3"/>
    <!-- Handlebar -->
    <line x1="120" y1="40" x2="100" y2="40" stroke="black" stroke-width="3"/>
    <!-- Seat -->
    <line x1="92" y1="48" x2="72" y2="48" stroke="black" stroke-width="3"/>
    <line x1="80" y1="50" x2="110" y2="100" stroke="black" stroke-width="3"/>
    <!-- Pedals -->
    <circle cx="110" cy="100" r="7" stroke="black" stroke-width="3" fill="none"/>
    <!-- Crank arms -->
    <line x1="110" y1="100" x2="105" y2="95" stroke="black" stroke-width="3"/>
    <line x1="110" y1="100" x2="115" y2="105" stroke="black" stroke-width="3"/>
    <!-- Pedals -->
    <line x1="105" y1="95" x2="98" y2="90" stroke="black" stroke-width="3"/>
    <line x1="115" y1="105" x2="122" y2="110" stroke="black" stroke-width="3"/>
</svg>